<svg xmlns="http://www.w3.org/2000/svg"  viewBox="0 0 50 50" width="100px" height="100px"><path fill="#ffffff" d="M 25 11 C 19.566667 11 13.503025 14.377659 8.6855469 17.673828 C 3.8680689 20.969997 0.3203125 24.267578 0.3203125 24.267578 A 1.0001 1.0001 0 0 0 0.29296875 25.707031 C 0.29296875 25.707031 8.5839269 34.054906 17.220703 38.005859 A 1.0001 1.0001 0 0 0 18.587891 37.408203 L 19.699219 34.005859 A 1.0001 1.0001 0 0 0 19.392578 32.931641 C 17.33196 31.197332 16 28.520782 16 25.5 C 16 20.215686 20.044445 16 25 16 C 29.955555 16 34 20.215686 34 25.5 C 34 28.176417 32.954602 30.580621 31.283203 32.300781 A 1.0001 1.0001 0 0 0 31.001953 32.996094 L 31 37.259766 A 1.0001 1.0001 0 0 0 32.404297 38.173828 C 41.179857 34.297697 49.707031 25.707031 49.707031 25.707031 A 1.0001 1.0001 0 0 0 49.679688 24.267578 C 49.679688 24.267578 46.131931 20.969997 41.314453 17.673828 C 36.496972 14.377659 30.433333 11 25 11 z M 25 13 C 29.566667 13 35.503025 16.122341 40.185547 19.326172 C 44.022247 21.951283 46.522008 24.147094 47.484375 25.009766 C 46.401202 26.061751 40.103861 31.97778 33 35.556641 L 33.001953 33.259766 C 34.824948 31.204205 36 28.509236 36 25.5 C 36 19.186314 31.090445 14 25 14 C 18.909555 14 14 19.186314 14 25.5 C 14 28.8494 15.410505 31.839114 17.615234 33.947266 L 17.066406 35.623047 C 9.9397228 32.055141 3.608539 26.073502 2.5136719 25.009766 C 3.4751156 24.147879 5.9766226 21.952056 9.8144531 19.326172 C 14.496975 16.122341 20.433333 13 25 13 z M 25.027344 18 A 1.0001 1.0001 0 0 0 24.199219 18.400391 L 18.199219 26.400391 A 1.0001 1.0001 0 0 0 18.292969 27.707031 L 21.923828 31.337891 C 21.784434 33.893617 20.105469 37.552734 20.105469 37.552734 A 1.0001 1.0001 0 0 0 20.292969 38.707031 C 20.292969 38.707031 20.683477 39.084903 21.302734 39.394531 C 21.730215 39.608272 22.306236 39.808199 23 39.916016 L 23 43 L 25 43 L 25 40 L 26 40 L 26 43 L 28 43 L 28 40 A 1.0001 1.0001 0 0 0 29 39 L 29 31.333984 L 31.800781 27.599609 A 1.0001 1.0001 0 0 0 31.800781 26.400391 L 25.800781 18.400391 A 1.0001 1.0001 0 0 0 25.027344 18 z M 25 20.667969 L 29.75 27 L 27.199219 30.400391 A 1.0001 1.0001 0 0 0 27 31 L 27 38 L 24 38 C 23.192784 38 22.635379 37.802216 22.253906 37.617188 C 22.748254 36.594197 24 33.856535 24 31 A 1.0001 1.0001 0 0 0 23.707031 30.292969 L 20.320312 26.90625 L 25 20.667969 z M 25 24 L 22.5 27 L 25.5 30 L 28 27 L 25 24 z"/></svg>